<?xml version="1.0" standalone="no"?>
<!DOCTYPE svg PUBLIC "-//W3C//DTD SVG 20010904//EN"
 "http://www.w3.org/TR/2001/REC-SVG-20010904/DTD/svg10.dtd">
<svg version="1.0" xmlns="http://www.w3.org/2000/svg"
 width="512.000000pt" height="512.000000pt" viewBox="0 0 512.000000 512.000000"
 preserveAspectRatio="xMidYMid meet">
<metadata>
Created by potrace 1.11, written by Peter Selinger 2001-2013
</metadata>
<g transform="translate(0.000000,512.000000) scale(0.100000,-0.100000)"
fill="#000000" stroke="none">
<path d="M1537 5034 c-1 -1 -21 -4 -45 -8 -134 -18 -254 -137 -277 -275 -9
-54 -10 -4350 0 -4382 35 -127 109 -210 223 -252 56 -20 71 -20 1107 -22 1076
-1 1100 0 1175 37 49 24 110 80 136 125 59 100 56 -63 55 2303 0 1196 -2 2184
-5 2195 -18 85 -66 159 -138 211 -95 70 -30 67 -1186 68 -574 1 -1044 1 -1045
0z"/>
</g>
</svg>
